<svg width="48" height="48" viewBox="0 0 48 48" fill="none" xmlns="http://www.w3.org/2000/svg">
<path fill-rule="evenodd" clip-rule="evenodd" d="M24 10C19.0294 10 15 14.0294 15 19V29C15 33.9706 19.0294 38 24 38C28.9706 38 33 33.9706 33 29V19C33 14.0294 28.9706 10 24 10ZM23.6306 14.3249C22.9771 13.7939 22 14.2589 22 15.101V22L19.2071 19.2071C18.8166 18.8166 18.1834 18.8166 17.7929 19.2071L17.7071 19.2929C17.3166 19.6834 17.3166 20.3166 17.7071 20.7071L21 24L17.7071 27.2929C17.3166 27.6834 17.3166 28.3166 17.7071 28.7071L17.7929 28.7929C18.1834 29.1834 18.8166 29.1834 19.2071 28.7929L22 26V32.099C22 32.9041 22.903 33.3792 23.5665 32.923L28.9546 29.2187C29.4876 28.8523 29.5378 28.084 29.0571 27.6514L25 24L29.131 20.2821C29.5874 19.8713 29.5692 19.15 29.0926 18.7627L23.6306 14.3249ZM25 18V21.5L27 19.5L25 18ZM25 30V26.5L27 28.5L25 30Z" fill="white"/>
</svg>
