<svg width="48" height="48" viewBox="0 0 48 48" fill="none" xmlns="http://www.w3.org/2000/svg">
<path fill-rule="evenodd" clip-rule="evenodd" d="M24.8996 15.2999C24.3749 14.9064 23.6554 14.8994 23.1231 15.2826L10.6231 24.2826C9.95081 24.7667 9.79821 25.7041 10.2823 26.3764C10.7663 27.0487 11.7037 27.2013 12.376 26.7173L23.9814 18.3614L35.0996 26.6999C35.7623 27.197 36.7025 27.0627 37.1996 26.3999C37.6966 25.7372 37.5623 24.797 36.8996 24.2999L24.8996 15.2999ZM11.0005 29.9999C10.4482 29.9999 10.0005 30.4477 10.0005 30.9999V31.9999C10.0005 32.5522 10.4482 32.9999 11.0005 32.9999H37.0005C37.5528 32.9999 38.0005 32.5522 38.0005 31.9999V30.9999C38.0005 30.4477 37.5528 29.9999 37.0005 29.9999H11.0005Z" fill="#FAF6F6"/>
</svg>
