<svg width="48" height="48" viewBox="0 0 48 48" fill="none" xmlns="http://www.w3.org/2000/svg">
<path fill-rule="evenodd" clip-rule="evenodd" d="M36 12C34.8954 12 34 12.8954 34 14V21.9999H30L27.9709 17.9416C27.1162 16.2323 25.1717 15.3663 23.3295 15.8745L18.3883 17.2376C14.3751 18.3447 11.1349 21.3068 9.67312 25.2049M34 28.9999H31.5C31.2239 28.9999 31 28.776 31 28.4999V27.9999H29C29 29.9253 26.3563 31.9999 24 31.9999H12.9308C10.7599 31.9999 9 30.24 9 28.069M36 12C37.1046 12 38 12.8954 38 14ZM38 14V34ZM38 34C38 35.1046 37.1046 36 36 36ZM36 36C34.8954 36 34 35.1046 34 34ZM34 34V28.9999Z" fill="white"/>
</svg>
