<svg width="48" height="48" viewBox="0 0 48 48" fill="none" xmlns="http://www.w3.org/2000/svg">
<path fill-rule="evenodd" clip-rule="evenodd" d="M43 41H42C40.3431 41 39 39.6569 39 38H12C10.8282 38 9.82064 38.8143 8.83822 39.6083C8.43151 39.937 8.02912 40.2622 7.62119 40.5247C7.15369 40.8255 6.59723 41 6 41H5C3.34315 41 2 39.6569 2 38V24.4853C2 22.894 2.63214 21.3679 3.75736 20.2426L5 19H2.97301C1.88335 19 1 18.1167 1 17.027C1 16.4234 1.41078 15.8973 1.99633 15.7509L3.75747 15.3106C4.38861 15.1528 5 15.6302 5 16.2808V18H6L7.79419 11.4213C8.50611 8.81093 10.8771 7 13.5828 7H34.4172C37.1229 7 39.4939 8.81093 40.2058 11.4213L42 18H43V16.2808C43 15.6302 43.6114 15.1528 44.2425 15.3106L46.0037 15.7509C46.5892 15.8973 47 16.4234 47 17.027C47 18.1167 46.1167 19 45.027 19H43L44.2426 20.2426C45.3679 21.3679 46 22.894 46 24.4853V38C46 39.6569 44.6569 41 43 41ZM8.71724 12.2759L7.11568 17.6145C7.05123 17.8293 7.1689 18.0564 7.38179 18.1272C9.11617 18.7053 10.9321 19 12.7597 19H35.3383C37.166 19 38.9819 18.7053 40.7163 18.1272C40.9292 18.0564 41.0468 17.8293 40.9824 17.6145L39.3808 12.2759C38.6196 9.73804 36.2836 8 33.6337 8H14.4643C11.8144 8 9.47847 9.73804 8.71724 12.2759ZM6.83394 20.3215C8.50337 21.96 9.90523 23.2239 12.5004 24.3005C12.7544 24.406 12.8549 24.7175 12.7021 24.9465C12.269 25.5964 11.5166 25.9595 10.7382 25.8945L7.9897 25.6655C6.70503 25.5586 5.49996 24.9995 4.58833 24.0881C3.96041 23.46 3.87837 22.47 4.39449 21.7473L5.31978 20.4521C5.67671 19.9521 6.39546 19.8911 6.83394 20.3215ZM40.9965 20.3215C39.3271 21.9597 37.9248 23.2239 35.33 24.3003C35.0756 24.4058 34.9755 24.7173 35.1284 24.9463C35.5615 25.5962 36.3134 25.9595 37.0918 25.8945L39.8408 25.6655C41.1254 25.5583 42.3305 24.9995 43.2421 24.0879C43.8701 23.46 43.9521 22.47 43.436 21.7473L42.5107 20.4521C42.1533 19.9521 41.435 19.8911 40.9965 20.3215ZM9.99996 32C7.39937 31.5249 6.05855 31.1194 3.99996 30L3.8105 30.7576C3.65279 31.3887 4.13033 32 4.78072 32H9.99996ZM37.7802 32C40.3808 31.5249 41.7216 31.1194 43.7802 30L43.9697 30.7576C44.1274 31.3887 43.6499 32 42.9995 32H37.7802ZM12.707 34.293C12.8945 34.1055 13.1489 34 13.414 34H34.5859C34.851 34 35.1054 34.1055 35.2929 34.293L36.1464 35.1465C36.4614 35.4614 36.2382 36 35.7929 36H12.207C11.7617 36 11.5385 35.4614 11.8535 35.1465L12.707 34.293Z" fill="white"/>
</svg>
