<svg width="48" height="48" viewBox="0 0 48 48" fill="none" xmlns="http://www.w3.org/2000/svg">
<path fill-rule="evenodd" clip-rule="evenodd" d="M31.1911 12.9059C32.294 12.8448 33.1386 11.9013 33.0775 10.7984C33.0164 9.69551 32.0728 8.85097 30.9699 8.91207C29.2121 9.03817 27.1458 9.90856 25.7576 11.2429C23.6637 13.3367 22.9732 16.3025 23.6859 18.9714L10.9083 31.749C10.1273 32.5301 10.1273 33.7964 10.9083 34.5774L13.7368 37.4059C14.5178 38.1869 15.7841 38.1869 16.5652 37.4059L29.3428 24.6283C32.0117 25.341 34.9775 24.6505 37.0713 22.5566C38.4056 21.1684 39.276 19.1021 39.4021 17.3443C39.4632 16.2414 38.6187 15.2978 37.5158 15.2367C36.4129 15.1756 35.4693 16.0202 35.4083 17.123C35.3768 18.21 35.0817 18.9432 34.2429 19.7282C32.6808 21.2903 30.1481 21.2903 28.586 19.7282C27.0239 18.1661 27.0239 15.6334 28.586 14.0713C29.371 13.2325 30.1042 12.9374 31.1911 12.9059Z" fill="white"/>
</svg>
