<svg width="48" height="48" viewBox="0 0 48 48" fill="none" xmlns="http://www.w3.org/2000/svg">
<path fill-rule="evenodd" clip-rule="evenodd" d="M9 24C9 32.2842 15.7158 39 24 39C32.2842 39 39 32.2842 39 24C39 15.7158 32.2842 9 24 9C15.7158 9 9 15.7158 9 24ZM36.1031 26.0466C29.4836 26.137 26.4187 31.5182 26.0777 36.0973C31.2014 35.2237 35.2422 31.1744 36.1031 26.0466ZM36.2727 24.0746V23.9254C36.2729 23.9502 36.2729 23.9751 36.2729 24C36.2729 24.0249 36.2729 24.0497 36.2727 24.0746ZM36.1981 22.6364C35.5197 16.4998 30.3174 11.7271 24 11.7271C17.6831 11.7271 12.4807 16.4998 11.8024 22.6364H14.7955C15.9695 22.6364 16.9541 22.2573 18.0755 21.8255C19.559 21.2543 21.2819 20.5909 24 20.5909C26.7181 20.5909 28.441 21.2543 29.9245 21.8255C31.0459 22.2573 32.0305 22.6364 33.2045 22.6364H36.1981ZM21.9223 36.0973C16.799 35.2237 12.7582 31.1743 11.8974 26.0466C18.5166 26.1373 21.5813 31.5183 21.9223 36.0973Z" fill="white"/>
</svg>
