<svg width="48" height="48" viewBox="0 0 48 48" fill="none" xmlns="http://www.w3.org/2000/svg">
<path fill-rule="evenodd" clip-rule="evenodd" d="M25.5 11C25.5 10.1716 24.8284 9.5 24 9.5C23.1716 9.5 22.5 10.1716 22.5 11V15C22.5 15.8284 23.1716 16.5 24 16.5C24.8284 16.5 25.5 15.8284 25.5 15V11ZM15.8683 13.747C15.2825 13.1612 14.3327 13.1612 13.747 13.747C13.1612 14.3327 13.1612 15.2825 13.747 15.8683L16.5754 18.6967C17.1612 19.2825 18.1109 19.2825 18.6967 18.6967C19.2825 18.1109 19.2825 17.1612 18.6967 16.5754L15.8683 13.747ZM34.2531 15.8683C34.8388 15.2825 34.8388 14.3327 34.2531 13.747C33.6673 13.1612 32.7175 13.1612 32.1317 13.747L29.3033 16.5754C28.7175 17.1612 28.7175 18.1109 29.3033 18.6967C29.8891 19.2825 30.8388 19.2825 31.4246 18.6967L34.2531 15.8683ZM11 22.5C10.1716 22.5 9.5 23.1716 9.5 24C9.5 24.8284 10.1716 25.5 11 25.5H15C15.8284 25.5 16.5 24.8284 16.5 24C16.5 23.1716 15.8284 22.5 15 22.5H11ZM33 22.5C32.1716 22.5 31.5 23.1716 31.5 24C31.5 24.8284 32.1716 25.5 33 25.5H37C37.8284 25.5 38.5 24.8284 38.5 24C38.5 23.1716 37.8284 22.5 37 22.5H33ZM18.6967 31.4246C19.2825 30.8388 19.2825 29.8891 18.6967 29.3033C18.1109 28.7175 17.1612 28.7175 16.5754 29.3033L13.747 32.1317C13.1612 32.7175 13.1612 33.6673 13.747 34.253C14.3327 34.8388 15.2825 34.8388 15.8683 34.253L18.6967 31.4246ZM31.4246 29.3033C30.8388 28.7175 29.8891 28.7175 29.3033 29.3033C28.7175 29.8891 28.7175 30.8388 29.3033 31.4246L32.1317 34.253C32.7175 34.8388 33.6673 34.8388 34.2531 34.253C34.8388 33.6673 34.8388 32.7175 34.2531 32.1317L31.4246 29.3033ZM25.5 33C25.5 32.1716 24.8284 31.5 24 31.5C23.1716 31.5 22.5 32.1716 22.5 33V37C22.5 37.8284 23.1716 38.5 24 38.5C24.8284 38.5 25.5 37.8284 25.5 37V33ZM27 24C27 25.6569 25.6569 27 24 27C22.3431 27 21 25.6569 21 24C21 22.3431 22.3431 21 24 21C25.6569 21 27 22.3431 27 24ZM30 24C30 27.3137 27.3137 30 24 30C20.6863 30 18 27.3137 18 24C18 20.6863 20.6863 18 24 18C27.3137 18 30 20.6863 30 24Z" fill="white"/>
</svg>
