<svg width="48" height="48" viewBox="0 0 48 48" fill="none" xmlns="http://www.w3.org/2000/svg">
<path fill-rule="evenodd" clip-rule="evenodd" d="M36 11H12C11.4477 11 11 11.4477 11 12V16.126C11.3196 16.0438 11.6547 16 12 16H36C36.3453 16 36.6804 16.0438 37 16.126V12C37 11.4477 36.5523 11 36 11ZM11 26V20C11 19.4477 11.4477 19 12 19H36C36.5523 19 37 19.4477 37 20V26C37 26.5523 36.5523 27 36 27H12C11.4477 27 11 26.5523 11 26ZM8.00003 12V20V26C8.00003 28.2091 9.79089 30 12 30H36C38.2092 30 40 28.2091 40 26V20V12C40 9.79086 38.2092 8 36 8H12C9.79089 8 8.00003 9.79086 8.00003 12ZM18.9603 34.8477C18.3239 34.3173 17.378 34.4033 16.8477 35.0397C16.3173 35.6761 16.4033 36.622 17.0397 37.1523L23.0397 42.1523C23.596 42.6159 24.404 42.6159 24.9603 42.1523L30.9603 37.1523C31.5967 36.622 31.6827 35.6761 31.1523 35.0397C30.622 34.4033 29.6761 34.3173 29.0397 34.8477L24 39.0474L18.9603 34.8477Z" fill="white"/>
</svg>
