<svg width="48" height="48" viewBox="0 0 48 48" fill="none" xmlns="http://www.w3.org/2000/svg">
<path fill-rule="evenodd" clip-rule="evenodd" d="M38.0435 36.5H37.3043C36.0797 36.5 35.087 35.5124 35.087 34.2941H12.913C12.913 35.5124 11.9203 36.5 10.6957 36.5H9.95652C8.73189 36.5 7.73913 35.5124 7.73913 34.2941V24.3568C7.73913 23.1868 8.20636 22.0646 9.03805 21.2372L9.95652 20.3235H8.45831C7.65291 20.3235 7 19.674 7 18.8728C7 18.429 7.30362 18.0421 7.73641 17.9345L9.03813 17.6108C9.50463 17.4947 9.95652 17.8457 9.95652 18.3241V19.5882H10.6957L12.0218 14.751C12.548 12.8316 14.3004 11.5 16.3003 11.5H31.6997C33.6996 11.5 35.452 12.8316 35.9782 14.751L37.3043 19.5882H38.0435V18.3241C38.0435 17.8457 38.4954 17.4947 38.9619 17.6108L40.2636 17.9345C40.6964 18.0421 41 18.429 41 18.8728C41 19.674 40.3471 20.3235 39.5417 20.3235H38.0435L38.962 21.2372C39.7936 22.0646 40.2609 23.1868 40.2609 24.3568V34.2941C40.2609 35.5124 39.2681 36.5 38.0435 36.5ZM11.5203 19.3049L12.7039 15.3793C13.2669 13.5131 14.9935 12.2353 16.9515 12.2353H31.1204C33.0789 12.2353 34.8055 13.5131 35.3685 15.3793L36.5521 19.3049C36.5994 19.4626 36.5125 19.6296 36.3553 19.6818C35.0736 20.1069 33.7313 20.3234 32.3802 20.3234H15.6922C14.3407 20.3234 12.9989 20.1069 11.7171 19.6818C11.5599 19.6296 11.4725 19.4626 11.5203 19.3049ZM15.4998 24.2209C13.5819 23.4294 12.5457 22.4999 11.3118 21.2954C10.9876 20.9787 10.4564 21.0236 10.1927 21.3913L9.50862 22.3437C9.12727 22.8749 9.18782 23.603 9.65218 24.0646C10.3255 24.7351 11.2166 25.1459 12.1658 25.2246L14.1976 25.393C14.7733 25.4409 15.3289 25.1738 15.6492 24.696C15.762 24.5275 15.6878 24.2985 15.4998 24.2209ZM32.3739 24.2209C34.2923 23.4294 35.3284 22.4999 36.5623 21.2951C36.8866 20.9787 37.4178 21.0236 37.6815 21.3913L38.3656 22.3434C38.7469 22.8749 38.6864 23.603 38.222 24.0646C37.5487 24.7348 36.6575 25.1459 35.7083 25.2246L33.6766 25.393C33.1009 25.4406 32.5452 25.1738 32.2249 24.6957C32.1121 24.5275 32.1864 24.2983 32.3739 24.2209ZM15.6527 31.5683C15.7913 31.4304 15.9793 31.353 16.1756 31.353H31.8241C32.0199 31.353 32.2078 31.4304 32.3465 31.5683L32.9774 32.196C33.2103 32.4274 33.0452 32.8237 32.7161 32.8237H15.283C14.9539 32.8237 14.7889 32.4274 15.0218 32.196L15.6527 31.5683Z" fill="white"/>
</svg>
